<svg width="24" height="25" viewBox="0 0 24 25" fill="none" xmlns="http://www.w3.org/2000/svg">
    <path fill-rule="evenodd" clip-rule="evenodd" d="M12 24.85c-6.6 0-12-5.4-12-12s5.4-12 12-12 12 5.4 12 12-5.4 12-12 12zm0-22.5c-5.775 0-10.5 4.725-10.5 10.5s4.725 10.5 10.5 10.5 10.5-4.725 10.5-10.5S17.775 2.35 12 2.35zm-1.65 6.487a4.182 4.182 0 0 0-1.012-.112H5.625v8.1H9.45c.338 0 .675-.075 1.013-.15.337-.075.637-.225.9-.413.262-.187.487-.45.637-.75.15-.3.225-.637.225-1.05 0-.524-.112-.937-.338-1.312-.262-.338-.6-.6-1.087-.75.337-.188.6-.412.787-.675.188-.262.263-.6.263-1.012 0-.375-.075-.675-.188-.938-.15-.225-.3-.45-.525-.6a2.5 2.5 0 0 0-.787-.338zm-.487 2.925c-.188.15-.45.226-.75.226v-.038H7.35v-1.875h1.613c.15 0 .3 0 .45.038.15.037.262.075.374.15.113.075.188.187.263.3a.8.8 0 0 1 .112.45c0 .337-.112.6-.3.75zm-.675 3.675c.187 0 .337 0 .487-.037.15-.037.3-.075.412-.188a.598.598 0 0 0 .263-.337c.075-.15.113-.3.113-.525 0-.412-.113-.713-.338-.9-.225-.188-.525-.262-.9-.262H7.35V15.4h1.838v.037zm5.474-.037c.225.225.563.338 1.013.338.3 0 .6-.075.825-.263.225-.15.375-.338.413-.525H18.3c-.225.713-.563 1.2-1.012 1.5-.45.3-1.013.45-1.65.45-.45 0-.863-.075-1.2-.225a2.302 2.302 0 0 1-.9-.637c-.263-.263-.45-.6-.563-.976-.15-.374-.188-.787-.188-1.237 0-.45.075-.862.225-1.237.15-.375.338-.713.6-.975a2.77 2.77 0 0 1 .938-.638 3.11 3.11 0 0 1 1.2-.225c.488 0 .9.113 1.275.3.375.188.638.45.9.787.225.338.412.713.488 1.126.112.412.15.862.112 1.312H14.25c0 .45.188.9.412 1.125zm1.8-3.075c-.187-.225-.487-.337-.9-.337-.262 0-.45.037-.637.15-.15.075-.3.187-.413.337a.894.894 0 0 0-.225.412c-.007.032-.015.061-.023.09a1.142 1.142 0 0 0-.051.285h2.55c0-.412-.113-.712-.3-.937zM13.95 9.25h3.188v.787H13.95V9.25z" fill="#3F3B3B"/>
</svg>
