<svg width="24" height="25" viewBox="0 0 24 25" fill="none" xmlns="http://www.w3.org/2000/svg">
    <path fill-rule="evenodd" clip-rule="evenodd" d="M12 .85c6.6 0 12 5.4 12 12s-5.4 12-12 12-12-5.4-12-12 5.4-12 12-12zm0 1.5c-5.775 0-10.5 4.725-10.5 10.5s4.725 10.5 10.5 10.5 10.5-4.725 10.5-10.5S17.775 2.35 12 2.35zm1.425 4.875c.75 0 1.387.037 1.575.075v1.8h-1.088c-.862 0-1.012.412-1.012.975v1.275h2.025l-.263 1.988H12.9v5.137h-2.138v-5.138H9V11.35h1.8v-1.5c0-1.688 1.05-2.625 2.625-2.625z" fill="#3F3B3B"/>
</svg>
