<svg width="24" height="25" viewBox="0 0 24 25" fill="none" xmlns="http://www.w3.org/2000/svg">
    <path fill-rule="evenodd" clip-rule="evenodd" d="M12 .85c-6.6 0-12 5.4-12 12s5.4 12 12 12 12-5.4 12-12-5.4-12-12-12zm0 22.5c-5.775 0-10.5-4.725-10.5-10.5S6.225 2.35 12 2.35s10.5 4.725 10.5 10.5-4.725 10.5-10.5 10.5zm3.975-16.538c.487.188.862.488 1.237.825.375.338.638.75.826 1.238.187.487.262.975.3 1.613.037.637.037.825.037 2.362 0 1.537 0 1.725-.038 2.363 0 .637-.112 1.124-.3 1.612-.187.488-.487.863-.825 1.238-.337.375-.75.637-1.237.825-.487.187-.975.262-1.612.3-.638.037-.825.037-2.363.037-1.537 0-1.725 0-2.363-.038a4.263 4.263 0 0 1-1.612-.3c-.488-.187-.863-.487-1.238-.825-.375-.337-.637-.75-.824-1.237-.188-.488-.263-.975-.3-1.612-.038-.638-.038-.825-.038-2.363 0-1.537 0-1.725.037-2.362 0-.638.113-1.126.3-1.613.188-.488.488-.863.825-1.238.338-.375.75-.637 1.238-.825.487-.187.975-.262 1.612-.3.638-.037.825-.037 2.363-.037 1.537 0 1.725 0 2.363.037.637 0 1.125.113 1.612.3zm.638 9.45c.112-.224.187-.524.224-1.125.038-.6.038-.787.038-2.287V10.6c-.035-.561-.136-.86-.21-1.08l-.015-.045a1.998 1.998 0 0 0-.487-.75 1.998 1.998 0 0 0-.75-.488c-.226-.112-.526-.187-1.126-.225-.6-.037-.787-.037-2.287-.037H9.75c-.561.035-.86.136-1.08.21l-.045.015c-.3.112-.525.262-.75.487-.225.225-.375.45-.487.75-.113.225-.188.525-.226 1.126-.037.6-.037.787-.037 2.287v2.25c.035.561.136.86.21 1.08l.015.045c.113.3.263.525.488.75.224.225.45.375.75.487.225.113.525.188 1.125.226.6.037.787.037 2.287.037h2.25c.561-.035.86-.136 1.08-.21l.045-.015c.3-.113.525-.262.75-.488.225-.224.375-.45.488-.75zm-.713-6.6a.713.713 0 1 1-1.425 0 .713.713 0 0 1 1.425 0zM12 9.55a3.281 3.281 0 0 0-3.3 3.3c0 1.838 1.463 3.3 3.3 3.3 1.838 0 3.3-1.462 3.3-3.3 0-1.838-1.463-3.3-3.3-3.3zm0 5.1c-.975 0-1.8-.825-1.8-1.8 0-.975.825-1.8 1.8-1.8.975 0 1.8.825 1.8 1.8 0 .975-.825 1.8-1.8 1.8z" fill="#3F3B3B"/>
</svg>
